HIERARCHY
ROOT Hips
{
	OFFSET 0.00000 0.00000 0.00000
	CHANNELS 6 Xposition Yposition Zposition Zrotation Yrotation Xrotation 
	JOINT LHipJoint
	{
		OFFSET 0 0 0
		CHANNELS 3 Zrotation Yrotation Xrotation
		JOINT LeftUpLeg
		{
			OFFSET 1.28366 -1.58472 0.87544
			CHANNELS 3 Zrotation Yrotation Xrotation
			JOINT LeftLeg
			{
				OFFSET 2.18587 -6.00562 0.00000
				CHANNELS 3 Zrotation Yrotation Xrotation
				JOINT LeftFoot
				{
					OFFSET 2.39085 -6.56880 0.00000
					CHANNELS 3 Zrotation Yrotation Xrotation
					JOINT LeftToeBase
					{
						OFFSET 0.12003 -0.32979 2.03101
						CHANNELS 3 Zrotation Yrotation Xrotation
						End Site
						{
							OFFSET 0.00000 -0.00000 1.04074
						}
					}
				}
			}
		}
	}
	JOINT RHipJoint
	{
		OFFSET 0 0 0
		CHANNELS 3 Zrotation Yrotation Xrotation
		JOINT RightUpLeg
		{
			OFFSET -1.21795 -1.58472 0.87544
			CHANNELS 3 Zrotation Yrotation Xrotation
			JOINT RightLeg
			{
				OFFSET -2.22714 -6.11902 0.00000
				CHANNELS 3 Zrotation Yrotation Xrotation
				JOINT RightFoot
				{
					OFFSET -2.40306 -6.60235 0.00000
					CHANNELS 3 Zrotation Yrotation Xrotation
					JOINT RightToeBase
					{
						OFFSET -0.15519 -0.42640 1.91430
						CHANNELS 3 Zrotation Yrotation Xrotation
						End Site
						{
							OFFSET -0.00000 -0.00000 0.99082
						}
					}
				}
			}
		}
	}
	JOINT LowerBack
	{
		OFFSET 0 0 0
		CHANNELS 3 Zrotation Yrotation Xrotation
		JOINT Spine
		{
			OFFSET 0.01180 1.76430 -0.06387
			CHANNELS 3 Zrotation Yrotation Xrotation
			JOINT Spine1
			{
				OFFSET -0.00388 1.74651 0.09536
				CHANNELS 3 Zrotation Yrotation Xrotation
				JOINT Neck
				{
					OFFSET 0 0 0
					CHANNELS 3 Zrotation Yrotation Xrotation
					JOINT Neck1
					{
						OFFSET 0.04111 1.46174 0.14397
						CHANNELS 3 Zrotation Yrotation Xrotation
						JOINT Head
						{
							OFFSET 0.00502 1.44580 -0.31711
							CHANNELS 3 Zrotation Yrotation Xrotation
							End Site
							{
								OFFSET -0.00395 1.49251 -0.12327
							}
						}
					}
				}
				JOINT LeftShoulder
				{
					OFFSET 0 0 0
					CHANNELS 3 Zrotation Yrotation Xrotation
					JOINT LeftArm
					{
						OFFSET 2.70917 1.34870 -0.15417
						CHANNELS 3 Zrotation Yrotation Xrotation
						JOINT LeftForeArm
						{
							OFFSET 4.46610 -0.00000 -0.00000
							CHANNELS 3 Zrotation Yrotation Xrotation
							JOINT LeftHand
							{
								OFFSET 3.41414 -0.00000 0.00000
								CHANNELS 3 Zrotation Yrotation Xrotation
								JOINT LeftFingerBase
								{
									OFFSET 0 0 0
									CHANNELS 3 Zrotation Yrotation Xrotation
									JOINT LeftHandIndex1
									{
										OFFSET 0.32830 -0.00000 0.00000
										CHANNELS 3 Zrotation Yrotation Xrotation
										End Site
										{
											OFFSET 0.26468 -0.00000 0.00000
										}
									}
								}
								JOINT LThumb
								{
									OFFSET 0 0 0
									CHANNELS 3 Zrotation Yrotation Xrotation
									End Site
									{
										OFFSET 0.26872 -0.00000 0.26872
									}
								}
							}
						}
					}
				}
				JOINT RightShoulder
				{
					OFFSET 0 0 0
					CHANNELS 3 Zrotation Yrotation Xrotation
					JOINT RightArm
					{
						OFFSET -3.06316 1.13725 -0.10883
						CHANNELS 3 Zrotation Yrotation Xrotation
						JOINT RightForeArm
						{
							OFFSET -4.40431 -0.00000 0.00000
							CHANNELS 3 Zrotation Yrotation Xrotation
							JOINT RightHand
							{
								OFFSET -3.04688 -0.00000 0.00000
								CHANNELS 3 Zrotation Yrotation Xrotation
								JOINT RightFingerBase
								{
									OFFSET 0 0 0
									CHANNELS 3 Zrotation Yrotation Xrotation
									JOINT RightHandIndex1
									{
										OFFSET -0.50049 -0.00000 0.00000
										CHANNELS 3 Zrotation Yrotation Xrotation
										End Site
										{
											OFFSET -0.40351 -0.00000 0.00000
										}
									}
								}
								JOINT RThumb
								{
									OFFSET 0 0 0
									CHANNELS 3 Zrotation Yrotation Xrotation
									End Site
									{
										OFFSET -0.40967 -0.00000 0.40967
									}
								}
							}
						}
					}
				}
			}
		}
	}
}
MOTION
Frames: 12
Frame Time: .0083333
2.4562 13.0962 2.6015 0 0 0 0 0 0 -21 0 0 0 0 0 0 0 0 0 0 0 0 0 0 21 0 0 0 0 0 0 0 0 0 0 0 0 0 0 0 0 0 0 0 0 0 0 -16 0 0 21 0 0 11 0 0 0 -8 0 0 0 0 0 0 0 0 0 0 0 0 0 0 0 0 0 0 0 0 8 0 0 0 0 0 0 0 0 0 0 0 0 0 0 0 0 0
2.4562 13.0962 2.6015 -178.0270 -0.8225 -176.6210 0.0000 0.0000 0.0000 -5.6593 29.5058 -49.9807 15.6341 19.5367 77.1395 1.9781 -12.3126 -25.4307 0.3733 -3.9242 -10.8635 0.0000 0.0000 0.0000 18.1161 -29.1474 -53.2250 -16.8059 -19.7536 80.6241 -3.2095 0.1269 -33.9643 -0.2279 -3.0729 8.4818 -0.2518 2.3723 6.4482 0.3190 3.1181 -3.9311 0.0716 1.5236 -7.7787 1.2268 2.3223 -19.4484 3.1693 -1.1706 36.7693 0.6531 -0.8541 16.5476 -0.0000 0.0000 0.0000 0.8120 -0.3684 39.4391 23.0614 -34.1559 -7.1727 -0.0000 0.0000 -16.0468 5.3237 0.7455 0.0695 -7.1250 0.0000 -0.0000 -16.6834 30.4700 6.1546 -0.0000 0.0000 0.0000 6.2321 -7.2989 38.4077 -22.7107 33.7709 -6.9768 0.0000 -0.0000 -14.6499 -9.6474 16.3985 -2.7476 7.1250 -0.0000 -0.0000 12.0712 -13.6192 9.0978
2.4662 13.0901 2.6030 -178.0470 -0.8595 -176.6430 0.0000 0.0000 0.0000 -5.6655 29.5312 -49.9812 15.6349 19.5369 77.1419 2.0303 -12.0122 -25.7249 0.4589 -4.3453 -12.0503 0.0000 0.0000 0.0000 18.1450 -29.2317 -53.2895 -16.8403 -19.7589 80.7258 -3.2175 0.1139 -34.0112 -0.2269 -3.0660 8.4625 -0.2470 2.3519 6.4373 0.3146 3.0909 -3.9285 0.0684 1.5100 -7.7688 1.2375 2.3527 -19.4208 3.1332 -1.1340 36.8376 0.6412 -0.8486 16.5751 0.0000 0.0000 0.0000 0.7705 -0.3533 39.2304 22.9758 -34.0624 -7.1247 -0.0000 0.0000 -15.9369 5.4835 0.5924 0.0569 -7.1250 0.0000 -0.0000 -16.5351 30.3269 6.1547 0.0000 0.0000 0.0000 6.1618 -7.2486 38.4005 -22.7205 33.7818 -6.9823 0.0000 -0.0000 -14.5729 -9.5538 16.4278 -2.7251 7.1250 -0.0000 -0.0000 12.1325 -13.5971 9.1520
2.4761 13.0839 2.6041 -178.0640 -0.9036 -176.6650 0.0000 0.0000 0.0000 -5.6731 29.5781 -49.9945 15.6290 19.5356 77.1243 2.0601 -11.8703 -25.8958 0.4861 -4.4708 -12.4052 0.0000 0.0000 0.0000 18.1704 -29.3154 -53.3423 -16.8727 -19.7639 80.8218 -3.2296 0.1377 -34.0684 -0.2287 -3.0780 8.4960 -0.2533 2.3421 6.4337 0.3070 3.0765 -3.9311 0.0659 1.5030 -7.7693 1.2493 2.3722 -19.4279 3.1109 -1.1245 36.9292 0.6300 -0.8523 16.6243 -0.0000 -0.0000 0.0000 0.7455 -0.3760 39.0489 22.9221 -34.0035 -7.0947 -0.0000 0.0000 -16.0415 5.5267 0.5500 0.0532 -7.1250 0.0000 -0.0000 -16.4949 30.2872 6.1550 -0.0000 -0.0000 0.0000 6.1543 -7.2390 38.2973 -22.7115 33.7718 -6.9772 0.0000 -0.0000 -14.4345 -9.4838 16.5060 -2.7173 7.1250 -0.0000 -0.0000 12.1773 -13.5249 9.2064
2.4855 13.0788 2.6053 -178.0520 -0.9424 -176.6960 0.0000 0.0000 0.0000 -5.6435 29.6097 -49.9899 15.6213 19.5340 77.1013 2.0890 -11.7501 -26.0640 0.4965 -4.5174 -12.5370 0.0000 0.0000 0.0000 18.2217 -29.3974 -53.3720 -16.9006 -19.7681 80.9041 -3.2393 0.1598 -34.1138 -0.2307 -3.0912 8.5328 -0.2310 2.3313 6.4320 0.3172 3.0648 -3.9321 0.0658 1.4963 -7.7686 1.2445 2.3930 -19.4215 3.0784 -1.1003 37.0137 0.6202 -0.8537 16.6659 0.0000 -0.0000 0.0000 0.7264 -0.3964 38.9068 22.8781 -33.9552 -7.0701 -0.0000 0.0000 -16.2446 5.5843 0.3861 0.0377 -7.1250 0.0000 -0.0000 -16.4236 30.1306 6.1906 0.0000 -0.0000 0.0000 6.1049 -7.2140 38.2313 -22.6927 33.7511 -6.9668 0.0000 -0.0000 -14.3494 -9.4178 16.5587 -2.7065 7.1250 -0.0000 -0.0000 12.2198 -13.4776 9.2526
2.4951 13.0742 2.6068 -178.0610 -1.0016 -176.7190 0.0000 0.0000 0.0000 -5.6876 29.6600 -50.0323 15.6039 19.5302 77.0494 2.1342 -11.4675 -26.3196 0.5136 -4.5934 -12.7523 0.0000 0.0000 0.0000 18.2532 -29.4639 -53.4076 -16.9285 -19.7723 80.9868 -3.2483 0.1444 -34.1667 -0.2314 -3.0961 8.5463 -0.2646 2.3085 6.4388 0.3202 3.0305 -3.9510 0.0914 1.4810 -7.7946 1.2514 2.4087 -19.3963 3.0841 -1.1004 37.0690 0.6202 -0.8577 16.6889 -0.0000 -0.0000 0.0000 0.7299 -0.3984 38.8032 22.8329 -33.9056 -7.0449 -0.0000 0.0000 -16.2702 5.5681 0.3764 0.0367 -7.1250 0.0000 -0.0000 -16.4344 30.1210 6.1989 -0.0000 -0.0000 0.0000 6.0712 -7.1862 38.1785 -22.6738 33.7302 -6.9563 0.0000 -0.0000 -14.3631 -9.4838 16.4556 -2.7093 7.1250 -0.0000 -0.0000 12.1782 -13.5745 9.1941
2.5047 13.0696 2.6085 -178.0610 -1.0575 -176.7370 0.0000 0.0000 0.0000 -5.7065 29.6861 -50.0624 15.5876 19.5267 77.0006 2.1712 -11.2449 -26.5311 0.5262 -4.6486 -12.9091 0.0000 0.0000 0.0000 18.3017 -29.5349 -53.4525 -16.9541 -19.7761 81.0622 -3.2568 0.1331 -34.2149 -0.2331 -3.1072 8.5773 -0.2718 2.2909 6.4414 0.3245 3.0059 -3.9652 0.1028 1.4691 -7.8119 1.2589 2.4237 -19.3825 3.0669 -1.0942 37.1377 0.6113 -0.8622 16.7213 -0.0000 -0.0000 0.0000 0.7189 -0.4129 38.6743 22.7843 -33.8521 -7.0178 -0.0000 0.0000 -16.3038 5.6082 0.2795 0.0274 -7.1250 0.0000 -0.0000 -16.3877 30.0285 6.2178 -0.0000 -0.0000 0.0000 6.0416 -7.1670 38.1017 -22.6575 33.7122 -6.9473 0.0000 -0.0000 -14.3137 -9.4444 16.4304 -2.6938 7.1250 -0.0000 -0.0000 12.2047 -13.6023 9.2077
2.5142 13.0657 2.6103 -178.0570 -1.1205 -176.7500 0.0000 0.0000 0.0000 -5.7346 29.6981 -50.1056 15.5684 19.5225 76.9432 2.2081 -11.0051 -26.7420 0.5284 -4.6581 -12.9360 0.0000 0.0000 0.0000 18.3595 -29.6001 -53.5007 -16.9775 -19.7795 81.1314 -3.2647 0.1085 -34.2647 -0.2349 -3.1192 8.6109 -0.2793 2.2734 6.4453 0.3301 2.9814 -3.9840 0.1155 1.4572 -7.8349 1.2648 2.4338 -19.3705 3.0511 -1.0943 37.2027 0.6020 -0.8692 16.7525 -0.0000 -0.0000 0.0000 0.7118 -0.4344 38.5600 22.7404 -33.8037 -6.9933 -0.0000 0.0000 -16.3172 5.6470 0.1765 0.0175 -7.1250 0.0000 -0.0000 -16.3413 29.9302 6.2389 -0.0000 -0.0000 0.0000 6.0180 -7.1579 38.0126 -22.6383 33.6909 -6.9366 0.0000 -0.0000 -14.2715 -9.3895 16.3996 -2.6730 7.1250 -0.0000 -0.0000 12.2417 -13.6366 9.2279
2.5239 13.0626 2.6125 -178.0470 -1.1927 -176.7560 0.0000 0.0000 0.0000 -5.7636 29.6845 -50.1586 15.5491 19.5182 76.8852 2.2424 -10.7842 -26.9394 0.5125 -4.5888 -12.7394 0.0000 0.0000 0.0000 18.4286 -29.6565 -53.5515 -16.9976 -19.7825 81.1909 -3.2726 0.0831 -34.3142 -0.2397 -3.1507 8.6986 -0.2861 2.2540 6.4499 0.3385 2.9543 -4.0062 0.1310 1.4440 -7.8620 1.2716 2.4402 -19.3591 3.0342 -1.0980 37.2607 0.5915 -0.8771 16.7802 0.0000 -0.0000 0.0000 0.7068 -0.4569 38.4559 22.7013 -33.7605 -6.9716 -0.0000 0.0000 -16.3072 5.6913 0.0699 0.0070 -7.1250 0.0000 -0.0000 -16.2902 29.8284 6.2592 0.0000 -0.0000 0.0000 5.9982 -7.1548 37.9163 -22.6179 33.6683 -6.9253 0.0000 -0.0000 -14.2386 -9.3155 16.3594 -2.6453 7.1250 -0.0000 -0.0000 12.2914 -13.6816 9.2552
2.5335 13.0602 2.6150 -178.0320 -1.2757 -176.7550 0.0000 0.0000 0.0000 -5.7931 29.6384 -50.2206 15.5300 19.5141 76.8283 2.2747 -10.5617 -27.1261 0.4874 -4.4766 -12.4216 0.0000 0.0000 0.0000 18.5113 -29.7057 -53.6075 -17.0146 -19.7850 81.2413 -3.2795 0.0367 -34.3645 -0.2440 -3.1789 8.7772 -0.2920 2.2318 6.4544 0.3494 2.9238 -4.0307 0.1491 1.4291 -7.8916 1.2803 2.4432 -19.3493 3.0155 -1.1043 37.3097 0.5795 -0.8853 16.8036 0.0000 -0.0000 0.0000 0.7024 -0.4794 38.3588 22.6684 -33.7242 -6.9533 -0.0000 0.0000 -16.2867 5.7378 -0.0344 -0.0035 -7.1250 0.0000 -0.0000 -16.2380 29.7288 6.2779 0.0000 -0.0000 0.0000 5.9822 -7.1582 37.8146 -22.5972 33.6454 -6.9138 0.0000 -0.0000 -14.2132 -9.2258 16.3139 -2.6123 7.1250 -0.0000 -0.0000 12.3516 -13.7329 9.2891
2.5432 13.0586 2.6179 -178.0110 -1.3693 -176.7480 0.0000 0.0000 0.0000 -5.8145 29.5503 -50.2820 15.5124 19.5101 76.7753 2.3029 -10.3633 -27.2901 0.4511 -4.3087 -11.9468 0.0000 0.0000 0.0000 18.6029 -29.7454 -53.6638 -17.0282 -19.7869 81.2814 -3.2863 -0.0094 -34.4142 -0.2511 -3.2243 8.9038 -0.2955 2.2077 6.4591 0.3638 2.8910 -4.0552 0.1698 1.4132 -7.9213 1.2878 2.4419 -19.3407 2.9936 -1.1119 37.3479 0.5662 -0.8937 16.8216 0.0000 0.0000 0.0000 0.6963 -0.5034 38.2677 22.6434 -33.6966 -6.9395 -0.0000 0.0000 -16.2761 5.7864 -0.1374 -0.0139 -7.1250 0.0000 -0.0000 -16.1845 29.6305 6.2953 0.0000 0.0000 0.0000 5.9657 -7.1710 37.7124 -22.5777 33.6238 -6.9031 0.0000 -0.0000 -14.1928 -9.1279 16.2690 -2.5773 7.1250 -0.0000 -0.0000 12.4173 -13.7840 9.3272
2.5528 13.0575 2.6213 -177.9840 -1.4735 -176.7380 0.0000 0.0000 0.0000 -5.8221 29.4164 -50.3382 15.4972 19.5068 76.7300 2.3267 -10.1884 -27.4295 0.4099 -4.1097 -11.3856 0.0000 0.0000 0.0000 18.7034 -29.7761 -53.7201 -17.0389 -19.7885 81.3129 -3.2928 -0.0590 -34.4636 -0.2599 -3.2802 9.0597 -0.2976 2.1809 6.4640 0.3819 2.8552 -4.0785 0.1940 1.3957 -7.9501 1.2965 2.4380 -19.3324 2.9673 -1.1182 37.3737 0.5512 -0.9011 16.8331 -0.0000 -0.0000 0.0000 0.6892 -0.5256 38.1823 22.6276 -33.6791 -6.9307 -0.0000 0.0000 -16.2937 5.8328 -0.2307 -0.0236 -7.1250 0.0000 -0.0000 -16.1343 29.5414 6.3101 -0.0000 -0.0000 0.0000 5.9484 -7.1911 37.6128 -22.5588 33.6028 -6.8926 0.0000 -0.0000 -14.1727 -9.0368 16.2303 -2.5453 7.1250 -0.0000 -0.0000 12.4784 -13.8283 9.3634
